<svg id="Layer_1" data-name="Layer 1" xmlns="http://www.w3.org/2000/svg" viewBox="0 0 251.52 66.37"><title>Digitall</title><path d="M110.65,177.59v39.27a52.27,52.27,0,0,1-.57,9,19.49,19.49,0,0,1-1.89,5.51,21.2,21.2,0,0,1-8.14,9,22.28,22.28,0,0,1-11.78,3.23A21.4,21.4,0,0,1,72.19,237q-6.35-6.57-6.35-16.63a24.14,24.14,0,0,1,1.55-8.6,22.56,22.56,0,0,1,4.5-7.33,20.67,20.67,0,0,1,7.18-5.21,21.41,21.41,0,0,1,8.73-1.84,26.16,26.16,0,0,1,6.35.75,22.62,22.62,0,0,1,5.76,2.3V209a21.42,21.42,0,0,0-5.53-3.09,16.46,16.46,0,0,0-5.67-1,13.84,13.84,0,0,0-10.55,4.41A15.91,15.91,0,0,0,74,220.69a15.56,15.56,0,0,0,4,11.08,13.48,13.48,0,0,0,10.3,4.3,13.28,13.28,0,0,0,10.28-4.34q3.95-4.34,4-11.35V177.59h8.05Z" transform="translate(-65.85 -177.2)" style="fill:#fff"/><path d="M115.83,185.42a4.65,4.65,0,0,1,1.41-3.41,4.71,4.71,0,0,1,3.46-1.41,4.74,4.74,0,0,1,4.83,4.82,4.87,4.87,0,0,1-1.39,3.53,4.59,4.59,0,0,1-3.44,1.43,4.63,4.63,0,0,1-3.43-1.46A4.81,4.81,0,0,1,115.83,185.42Zm0.86,57.33V198.11h8v44.64h-8Z" transform="translate(-65.85 -177.2)" style="fill:#fff"/><path d="M161.57,208.47V177.2h2.23a47.9,47.9,0,0,1,9.87,1A35.55,35.55,0,0,1,182,181a32.38,32.38,0,0,1,13.13,12,33,33,0,0,1,2.16,29.69,32.37,32.37,0,0,1-7.37,10.7,33.8,33.8,0,0,1-47.67,0A31.78,31.78,0,0,1,135,222.53a35.23,35.23,0,0,1-2.5-13.33,32.7,32.7,0,0,1,2.87-13.65,41.33,41.33,0,0,1,8.87-12.24l5.87,5.78a35.23,35.23,0,0,0-7.32,9.86,24.26,24.26,0,0,0-2.37,10.53,26.12,26.12,0,0,0,.91,7,21.34,21.34,0,0,0,2.73,6.08,24.91,24.91,0,0,0,9.35,8.74,26.59,26.59,0,0,0,30.81-4.1,23.72,23.72,0,0,0,5.48-7.8,22.88,22.88,0,0,0,1.93-9.26,22.58,22.58,0,0,0-6-15.86q-6-6.48-15.92-7.8v22h-8.19Z" transform="translate(-65.85 -177.2)" style="fill:#fff"/><path d="M205.85,185.42a4.65,4.65,0,0,1,1.41-3.41,4.71,4.71,0,0,1,3.46-1.41,4.74,4.74,0,0,1,4.82,4.82,4.88,4.88,0,0,1-1.39,3.53,4.58,4.58,0,0,1-3.43,1.43,4.64,4.64,0,0,1-3.43-1.46A4.81,4.81,0,0,1,205.85,185.42Zm0.86,57.33V198.11h8v44.64h-8Z" transform="translate(-65.85 -177.2)" style="fill:#fff"/><path d="M222.17,186.28h8v11.83h13.5v7.55h-13.5v19.11q0,5.37,2.62,7.85t8.34,2.48h2.54v7.64H241q-9.46,0-14.16-4.14t-4.7-12.46V186.28Z" transform="translate(-65.85 -177.2)" style="fill:#fff"/><path d="M283.09,242.75V220.5q0-7-4-11.35a13.26,13.26,0,0,0-10.28-4.35,13.48,13.48,0,0,0-10.3,4.3,15.59,15.59,0,0,0-4,11.08,15.9,15.9,0,0,0,4.13,11.33,13.82,13.82,0,0,0,10.55,4.41,16.46,16.46,0,0,0,5.66-1,21.46,21.46,0,0,0,5.52-3.09v8.59a22.69,22.69,0,0,1-5.75,2.3,26.35,26.35,0,0,1-6.34.75,21,21,0,0,1-6.32-1,20.59,20.59,0,0,1-5.68-2.75,22.29,22.29,0,0,1-7.36-8.3,23.93,23.93,0,0,1-2.55-11.08q0-10,6.32-16.54a21.38,21.38,0,0,1,16-6.53,22.14,22.14,0,0,1,11.73,3.23,21.54,21.54,0,0,1,8.18,8.87,20.11,20.11,0,0,1,1.89,5.58,52.66,52.66,0,0,1,.57,9v18.74h-8Z" transform="translate(-65.85 -177.2)" style="fill:#fdfdfe"/><path d="M295.36,242.75V177.59h8v65.16h-8Z" transform="translate(-65.85 -177.2)" style="fill:#fefdfe"/><path d="M309.36,242.75V177.59h8v65.16h-8Z" transform="translate(-65.85 -177.2)" style="fill:#fcfafa"/></svg>