<svg id="Layer_1" data-name="Layer 1" xmlns="http://www.w3.org/2000/svg" viewBox="0 0 286.66 92.8"><title>Web-blanco</title><path d="M44.8,0.39V39.66a52.27,52.27,0,0,1-.57,9,19.49,19.49,0,0,1-1.89,5.51,21.2,21.2,0,0,1-8.14,9A22.28,22.28,0,0,1,22.42,66.4,21.4,21.4,0,0,1,6.34,59.8Q0,53.23,0,43.17a24.14,24.14,0,0,1,1.55-8.6A22.56,22.56,0,0,1,6,27.24,20.67,20.67,0,0,1,13.22,22,21.41,21.41,0,0,1,22,20.19a26.16,26.16,0,0,1,6.35.75,22.62,22.62,0,0,1,5.76,2.3V31.8a21.42,21.42,0,0,0-5.53-3.09,16.46,16.46,0,0,0-5.67-1,13.84,13.84,0,0,0-10.55,4.41A15.91,15.91,0,0,0,8.15,43.49a15.56,15.56,0,0,0,4,11.08,13.48,13.48,0,0,0,10.3,4.3,13.28,13.28,0,0,0,10.28-4.34q4-4.34,4-11.35V0.39H44.8Z" transform="translate(0.01 0)" style="fill:#c13030"/><path d="M50,8.22a4.65,4.65,0,0,1,1.41-3.41A4.87,4.87,0,0,1,59.68,8q0,0.09,0,.17a4.87,4.87,0,0,1-1.39,3.53,4.81,4.81,0,0,1-6.87,0A4.81,4.81,0,0,1,50,8.22Zm0.86,57.33V20.91h8V65.55h-8Z" transform="translate(0.01 0)" style="fill:#c13030"/><path d="M95.72,31.27V0H98a47.9,47.9,0,0,1,9.87,1,35.55,35.55,0,0,1,8.33,2.8,32.38,32.38,0,0,1,13.13,12,33,33,0,0,1,2.16,29.69,32.37,32.37,0,0,1-7.37,10.7,33.8,33.8,0,0,1-47.67,0,31.78,31.78,0,0,1-7.25-10.86A35.23,35.23,0,0,1,66.65,32a32.7,32.7,0,0,1,2.87-13.65A41.33,41.33,0,0,1,78.39,6.11l5.87,5.78a35.23,35.23,0,0,0-7.32,9.86,24.26,24.26,0,0,0-2.37,10.53,26.12,26.12,0,0,0,.91,7,21.34,21.34,0,0,0,2.73,6.08,24.91,24.91,0,0,0,9.35,8.74A26.59,26.59,0,0,0,118.37,50a23.72,23.72,0,0,0,5.48-7.8,22.88,22.88,0,0,0,1.93-9.26,22.58,22.58,0,0,0-6-15.86q-6-6.48-15.92-7.8v22H95.72Z" transform="translate(0.01 0)" style="fill:#c13030"/><path d="M140,8.22a4.65,4.65,0,0,1,1.41-3.41,4.86,4.86,0,0,1,8.28,3.25q0,0.08,0,.16a4.88,4.88,0,0,1-1.39,3.53,4.58,4.58,0,0,1-3.43,1.43,4.64,4.64,0,0,1-3.43-1.46A4.81,4.81,0,0,1,140,8.22Zm0.86,57.33V20.91h8V65.55h-8Z" transform="translate(0.01 0)" style="fill:#c13030"/><path d="M156.32,9.08h8V20.91h13.5v7.55h-13.5V47.57q0,5.37,2.62,7.85t8.34,2.48h2.54v7.64h-2.67q-9.46,0-14.16-4.14t-4.7-12.46V9.08h0Z" transform="translate(0.01 0)" style="fill:#c13030"/><path d="M217.24,65.55V43.3q0-7-4-11.35A13.26,13.26,0,0,0,203,27.6a13.48,13.48,0,0,0-10.3,4.3,15.59,15.59,0,0,0-4,11.08,15.9,15.9,0,0,0,4.13,11.33,13.82,13.82,0,0,0,10.55,4.41,16.46,16.46,0,0,0,5.66-1,21.46,21.46,0,0,0,5.52-3.09v8.59a22.69,22.69,0,0,1-5.75,2.3,26.35,26.35,0,0,1-6.34.75,21,21,0,0,1-6.32-1,20.59,20.59,0,0,1-5.68-2.75,22.29,22.29,0,0,1-7.36-8.3,23.93,23.93,0,0,1-2.55-11.08q0-10,6.32-16.54a21.38,21.38,0,0,1,16-6.53,22.14,22.14,0,0,1,11.73,3.23,21.54,21.54,0,0,1,8.18,8.87,20.11,20.11,0,0,1,1.89,5.58,52.66,52.66,0,0,1,.57,9V65.49h-8Z" transform="translate(0.01 0)" style="fill:#c13030"/><path d="M229.51,65.55V0.39h8V65.55h-8Z" transform="translate(0.01 0)" style="fill:#c13030"/><path d="M243.51,65.55V0.39h8V65.55h-8Z" transform="translate(0.01 0)" style="fill:#c13030"/><path d="M188,70.66h3.13v3H188v-3Zm0,5.19h3.13v12H188v-12Z" transform="translate(0.01 0)" style="fill:#f9f9f9"/><path d="M200.38,78.37a10.57,10.57,0,0,0-1.33-.39,7.2,7.2,0,0,0-1.47-.13,3.87,3.87,0,0,0-.65.06,1.58,1.58,0,0,0-.58.22,1.42,1.42,0,0,0-.43.42,1.08,1.08,0,0,0-.18.63,0.84,0.84,0,0,0,.41.74,4.34,4.34,0,0,0,1,.47l1.3,0.41a4.58,4.58,0,0,1,1.31.62,3.51,3.51,0,0,1,1,1.08,3.28,3.28,0,0,1,.41,1.74,3.52,3.52,0,0,1-.43,1.8,3.6,3.6,0,0,1-1.13,1.22,5,5,0,0,1-1.61.69,7.83,7.83,0,0,1-1.87.22,11.82,11.82,0,0,1-1.79-.14,17,17,0,0,1-1.76-.38l0.19-2.57a8.34,8.34,0,0,0,1.51.59,5.93,5.93,0,0,0,1.58.21,3.34,3.34,0,0,0,.65-0.07,2.54,2.54,0,0,0,.67-0.23,1.53,1.53,0,0,0,.53-0.45,1.18,1.18,0,0,0,.21-0.72,1,1,0,0,0-.41-0.89,3.79,3.79,0,0,0-1-.52c-0.4-.14-0.83-0.27-1.31-0.4a4.66,4.66,0,0,1-1.31-.56,3.29,3.29,0,0,1-1-1,3.17,3.17,0,0,1-.41-1.73,3.35,3.35,0,0,1,.39-1.68,3.51,3.51,0,0,1,1-1.16,4.67,4.67,0,0,1,1.51-.68,7,7,0,0,1,1.77-.22,10.77,10.77,0,0,1,1.89.14l1.52,0.3Z" transform="translate(0.01 0)" style="fill:#f9f9f9"/><path d="M207.76,75.8h3v1.71h0a4.22,4.22,0,0,1,1.44-1.44,4.34,4.34,0,0,1,2.3-.55,5,5,0,0,1,2.35.52,4.32,4.32,0,0,1,1.57,1.38,5.89,5.89,0,0,1,.86,2,10.23,10.23,0,0,1,.27,2.37,10.36,10.36,0,0,1-.27,2.38,5.86,5.86,0,0,1-.88,2,4.45,4.45,0,0,1-1.59,1.4,5,5,0,0,1-2.38.53,5.13,5.13,0,0,1-1.86-.33,4.16,4.16,0,0,1-1.67-1.33h0V92.8h-3.13v-17h0Zm4.67,2.51a2.91,2.91,0,0,0-.88.92,4.17,4.17,0,0,0-.49,1.24,6,6,0,0,0-.15,1.31,6.76,6.76,0,0,0,.14,1.32,4.33,4.33,0,0,0,.46,1.26,2.76,2.76,0,0,0,.85,1,2.24,2.24,0,0,0,1.31.38,2.14,2.14,0,0,0,1.29-.37,2.62,2.62,0,0,0,.81-1,4.91,4.91,0,0,0,.42-1.26,7.17,7.17,0,0,0,.13-1.31,7.6,7.6,0,0,0-.12-1.29,4,4,0,0,0-.42-1.24,2.9,2.9,0,0,0-.79-0.93,2,2,0,0,0-1.26-.37,2.24,2.24,0,0,0-1.3.44V78.31Z" transform="translate(0.01 0)" style="fill:#f9f9f9"/><path d="M220.57,79.27a5.7,5.7,0,0,1,1.33-2,6,6,0,0,1,2-1.26,6.77,6.77,0,0,1,2.48-.45,6.86,6.86,0,0,1,2.49.45,6,6,0,0,1,2,1.26,5.72,5.72,0,0,1,1.33,2,7.09,7.09,0,0,1,.48,2.68,7,7,0,0,1-.42,2.44A5.52,5.52,0,0,1,229,87.68a7.64,7.64,0,0,1-5.33,0,5.55,5.55,0,0,1-3.2-3.29,6.94,6.94,0,0,1-.42-2.44A7,7,0,0,1,220.57,79.27Zm2.93,3.79a4.29,4.29,0,0,0,.48,1.33,2.74,2.74,0,0,0,.92,1,2.69,2.69,0,0,0,1.47.38,2.79,2.79,0,0,0,1.49-.36,2.64,2.64,0,0,0,.92-1,4.27,4.27,0,0,0,.48-1.34,8.08,8.08,0,0,0,.14-1.5,4.78,4.78,0,0,0-.19-1.34,3.43,3.43,0,0,0-.56-1.13,2.88,2.88,0,0,0-1-.79,2.85,2.85,0,0,0-1.34-.3,2.78,2.78,0,0,0-1.33.3,2.88,2.88,0,0,0-.93.81,3.63,3.63,0,0,0-.56,1.15,4.68,4.68,0,0,0-.19,1.32A7.89,7.89,0,0,0,223.5,83.06Z" transform="translate(0.01 0)" style="fill:#f9f9f9"/><path d="M241.15,78.37a10.48,10.48,0,0,0-1.33-.39,7.2,7.2,0,0,0-1.47-.13,3.87,3.87,0,0,0-.65.06,1.58,1.58,0,0,0-.58.22,1.4,1.4,0,0,0-.43.42,1.08,1.08,0,0,0-.17.63,0.83,0.83,0,0,0,.41.74,4.33,4.33,0,0,0,1,.47l1.22,0.41a4.59,4.59,0,0,1,1.31.62,3.5,3.5,0,0,1,1,1.08,3.29,3.29,0,0,1,.41,1.74,3.52,3.52,0,0,1-.43,1.8,3.59,3.59,0,0,1-1.13,1.22,5.06,5.06,0,0,1-1.61.69,7.85,7.85,0,0,1-1.87.22A11.8,11.8,0,0,1,235,88a16.8,16.8,0,0,1-1.76-.38l0.19-2.57a8.25,8.25,0,0,0,1.51.59,5.94,5.94,0,0,0,1.58.21,3.34,3.34,0,0,0,.65-0.07,2.54,2.54,0,0,0,.67-0.23,1.53,1.53,0,0,0,.53-0.45,1.17,1.17,0,0,0,.21-0.72,1,1,0,0,0-.41-0.89,3.79,3.79,0,0,0-1-.52c-0.4-.14-0.83-0.27-1.31-0.4a4.65,4.65,0,0,1-1.31-.56,3.29,3.29,0,0,1-1-1,3.16,3.16,0,0,1-.41-1.73,3.34,3.34,0,0,1,.4-1.68,3.48,3.48,0,0,1,1-1.16,4.65,4.65,0,0,1,1.52-.67,7,7,0,0,1,1.76-.22,10.76,10.76,0,0,1,1.89.14l1.52,0.3Z" transform="translate(0.01 0)" style="fill:#f9f9f9"/><path d="M250.33,78.37A10.53,10.53,0,0,0,249,78a7.22,7.22,0,0,0-1.47-.13,3.86,3.86,0,0,0-.65.06,1.58,1.58,0,0,0-.58.22,1.42,1.42,0,0,0-.43.42,1.08,1.08,0,0,0-.17.63,0.83,0.83,0,0,0,.41.74,4.29,4.29,0,0,0,1,.47l1.31,0.41a4.6,4.6,0,0,1,1.31.62,3.53,3.53,0,0,1,1,1.08,3.3,3.3,0,0,1,.41,1.74,3.54,3.54,0,0,1-.43,1.8,3.61,3.61,0,0,1-1.13,1.22,5,5,0,0,1-1.61.69,7.84,7.84,0,0,1-1.87.22,11.8,11.8,0,0,1-1.79-.14,17,17,0,0,1-1.76-.38l0.19-2.57a8.31,8.31,0,0,0,1.51.59,5.93,5.93,0,0,0,1.58.21,3.34,3.34,0,0,0,.65-0.07,2.55,2.55,0,0,0,.67-0.23,1.54,1.54,0,0,0,.53-0.45,1.17,1.17,0,0,0,.21-0.72,1,1,0,0,0-.41-0.89,3.79,3.79,0,0,0-1-.52c-0.4-.14-0.83-0.27-1.31-0.4a4.68,4.68,0,0,1-1.31-.56,3.29,3.29,0,0,1-1-1,3.16,3.16,0,0,1-.41-1.73,3.35,3.35,0,0,1,.4-1.68,3.49,3.49,0,0,1,1-1.16,4.65,4.65,0,0,1,1.51-.68,7,7,0,0,1,1.76-.22,10.76,10.76,0,0,1,1.89.14l1.52,0.3Z" transform="translate(0.01 0)" style="fill:#f9f9f9"/><path d="M252.45,70.66h3.13v3h-3.13v-3Zm0,5.19h3.13v12h-3.13v-12Z" transform="translate(0.01 0)" style="fill:#f9f9f9"/><path d="M257.71,70.35h3.13v7h0A4.94,4.94,0,0,1,262.35,76a4.2,4.2,0,0,1,2.09-.48,4.94,4.94,0,0,1,2.35.52,4.32,4.32,0,0,1,1.57,1.38,5.84,5.84,0,0,1,.87,2,10.23,10.23,0,0,1,.27,2.37,10.36,10.36,0,0,1-.27,2.38,6,6,0,0,1-.87,2,4.39,4.39,0,0,1-1.57,1.4,4.88,4.88,0,0,1-2.35.53,5.42,5.42,0,0,1-2-.4,3.71,3.71,0,0,1-1.68-1.36h0v1.47h-3V70.35h-0.05ZM261,83.15a4.39,4.39,0,0,0,.46,1.26,2.77,2.77,0,0,0,.85,1,2.25,2.25,0,0,0,1.31.38,2.14,2.14,0,0,0,1.29-.37,2.62,2.62,0,0,0,.81-1,4.8,4.8,0,0,0,.42-1.26,7,7,0,0,0,.13-1.31,7.6,7.6,0,0,0-.12-1.29,4,4,0,0,0-.42-1.24,2.88,2.88,0,0,0-.79-0.93,2,2,0,0,0-1.26-.37,2.25,2.25,0,0,0-1.29.36,2.93,2.93,0,0,0-.87.92,4.18,4.18,0,0,0-.49,1.24,6.06,6.06,0,0,0-.15,1.31,6.75,6.75,0,0,0,.13,1.35h0Z" transform="translate(0.01 0)" style="fill:#f9f9f9"/><path d="M270.9,70.35H274V87.88H270.9V70.35Z" transform="translate(0.01 0)" style="fill:#f9f9f9"/><path d="M285.81,87.21a7.75,7.75,0,0,1-1.87.71,9.55,9.55,0,0,1-2.27.25A6.32,6.32,0,0,1,277,86.55a6.19,6.19,0,0,1-1.65-4.62,8.44,8.44,0,0,1,.35-2.46,6,6,0,0,1,1-2,4.89,4.89,0,0,1,1.74-1.37,5.62,5.62,0,0,1,2.46-.5,6.18,6.18,0,0,1,2.78.55,4.51,4.51,0,0,1,1.75,1.51,6.17,6.17,0,0,1,.92,2.3,14.81,14.81,0,0,1,.27,2.91h-8.32a3.15,3.15,0,0,0,1,2.26,3.58,3.58,0,0,0,2.4.78,6,6,0,0,0,2.13-.36,13.45,13.45,0,0,0,1.87-.85v2.55Zm-2.1-6.52a5.31,5.31,0,0,0-.2-1.07,2.66,2.66,0,0,0-.46-0.9,2.26,2.26,0,0,0-.77-0.62,2.52,2.52,0,0,0-1.12-.23,2.45,2.45,0,0,0-2,.8,3.64,3.64,0,0,0-.78,2h5.33v0Z" transform="translate(0.01 0)" style="fill:#f9f9f9"/></svg>