<?xml version="1.0" encoding="utf-8"?>
<!-- Generator: Adobe Illustrator 19.2.1, SVG Export Plug-In . SVG Version: 6.00 Build 0)  -->
<svg version="1.1" id="Layer_1" xmlns="http://www.w3.org/2000/svg" xmlns:xlink="http://www.w3.org/1999/xlink" x="0px" y="0px"
	 viewBox="0 0 286.7 92.8" style="enable-background:new 0 0 286.7 92.8;" xml:space="preserve">
<style type="text/css">
	.st0{fill:#C13030;}
	.st1{fill:#F9F9F9;}
</style>
<title>Web</title>
<path class="st0" d="M44.8,0.4v39.3c0.1,3-0.1,6-0.6,9c-0.4,1.9-1,3.8-1.9,5.5c-1.8,3.7-4.6,6.9-8.1,9c-3.5,2.2-7.6,3.3-11.8,3.2
	c-6.1,0.2-11.9-2.2-16.1-6.6C2.1,55.4,0,49.9,0,43.2c0-2.9,0.5-5.9,1.6-8.6c1-2.7,2.5-5.2,4.5-7.3c2-2.2,4.4-4,7.2-5.2
	c2.7-1.2,5.7-1.8,8.7-1.8c2.1,0,4.3,0.2,6.3,0.8c2,0.5,4,1.3,5.8,2.3v8.6c-1.7-1.3-3.5-2.3-5.5-3.1c-1.8-0.7-3.7-1-5.7-1
	c-4-0.1-7.8,1.5-10.6,4.4C9.5,35.2,8,39.3,8.2,43.5c-0.2,4.1,1.3,8.1,4,11.1c2.7,2.9,6.4,4.4,10.3,4.3c3.9,0.1,7.7-1.5,10.3-4.3
	c2.6-2.9,4-6.7,4-11.4V0.4H44.8L44.8,0.4z"/>
<path class="st0" d="M50,8.2c0-1.3,0.5-2.5,1.4-3.4c0.9-0.9,2.2-1.4,3.5-1.4c2.6-0.1,4.8,2,4.8,4.6c0,0.1,0,0.1,0,0.2
	c0,1.3-0.5,2.6-1.4,3.5c-0.9,0.9-2.1,1.5-3.4,1.4c-1.3,0-2.5-0.5-3.4-1.5C50.5,10.8,50,9.5,50,8.2z M50.8,65.6V20.9h8v44.6H50.8z"/>
<path class="st0" d="M95.7,31.3V0H98c3.3,0,6.6,0.3,9.9,1c2.9,0.6,5.7,1.5,8.3,2.8c5.4,2.7,10,6.9,13.1,12c5.4,9,6.2,20,2.2,29.7
	c-1.7,4-4.2,7.7-7.4,10.7c-13.2,13.1-34.5,13.1-47.7,0c-3.1-3.1-5.6-6.8-7.3-10.9c-1.7-4.2-2.5-8.8-2.5-13.3c0-4.7,0.9-9.4,2.9-13.6
	c2.2-4.6,5.2-8.7,8.9-12.2l5.9,5.8c-3,2.8-5.5,6.2-7.3,9.9c-1.6,3.3-2.4,6.9-2.4,10.5c0,2.4,0.3,4.7,0.9,7c0.6,2.2,1.5,4.2,2.7,6.1
	c2.3,3.7,5.5,6.7,9.4,8.7c10.1,5.4,22.5,3.8,30.8-4.1c2.3-2.2,4.2-4.9,5.5-7.8c1.3-2.9,1.9-6.1,1.9-9.3c0.1-5.9-2-11.6-6-15.9
	c-4-4.3-9.3-6.9-15.9-7.8v22L95.7,31.3L95.7,31.3z"/>
<path class="st0" d="M140,8.2c0-1.3,0.5-2.5,1.4-3.4c0.9-0.9,2.2-1.4,3.5-1.4c2.6,0,4.8,2,4.8,4.7c0,0.1,0,0.1,0,0.2
	c0,1.3-0.5,2.6-1.4,3.5c-0.9,0.9-2.1,1.5-3.4,1.4c-1.3,0-2.5-0.5-3.4-1.5C140.5,10.8,140,9.5,140,8.2z M140.9,65.6V20.9h8v44.6
	H140.9z"/>
<path class="st0" d="M156.3,9.1h8v11.8h13.5v7.6h-13.5v19.1c0,3.6,0.9,6.2,2.6,7.9c1.7,1.7,4.5,2.5,8.3,2.5h2.5v7.6h-2.7
	c-6.3,0-11-1.4-14.2-4.1s-4.7-6.9-4.7-12.5L156.3,9.1L156.3,9.1z"/>
<path class="st0" d="M217.2,65.6V43.3c0-4.7-1.3-8.4-4-11.4c-2.6-2.9-6.4-4.5-10.3-4.4c-3.9-0.1-7.6,1.4-10.3,4.3
	c-2.7,3-4.2,7-4,11.1c-0.2,4.2,1.3,8.2,4.1,11.3c2.7,2.9,6.6,4.5,10.5,4.4c1.9,0,3.8-0.3,5.7-1c2-0.8,3.8-1.8,5.5-3.1v8.6
	c-1.8,1-3.7,1.8-5.8,2.3c-2.1,0.5-4.2,0.8-6.3,0.8c-2.1,0-4.3-0.3-6.3-1c-2-0.6-3.9-1.5-5.7-2.8c-3.1-2.1-5.6-5-7.4-8.3
	c-1.7-3.4-2.6-7.2-2.6-11.1c0-6.7,2.1-12.2,6.3-16.5c4.2-4.3,10-6.7,16-6.5c4.1,0,8.2,1.1,11.7,3.2c3.5,2.1,6.4,5.2,8.2,8.9
	c0.9,1.8,1.5,3.6,1.9,5.6c0.4,3,0.6,6,0.6,9v18.7L217.2,65.6L217.2,65.6z"/>
<path class="st0" d="M229.5,65.6V0.4h8v65.2H229.5z"/>
<path class="st0" d="M243.5,65.6V0.4h8v65.2H243.5z"/>
<path class="st1" d="M188,70.7h3.1v3H188V70.7z M188,75.9h3.1v12H188V75.9L188,75.9z"/>
<path class="st1" d="M200.4,78.4c-0.4-0.2-0.9-0.3-1.3-0.4c-0.5-0.1-1-0.1-1.5-0.1c-0.2,0-0.4,0-0.6,0.1c-0.2,0-0.4,0.1-0.6,0.2
	c-0.2,0.1-0.3,0.3-0.4,0.4c-0.1,0.2-0.2,0.4-0.2,0.6c0,0.3,0.2,0.6,0.4,0.7c0.3,0.2,0.6,0.4,1,0.5l1.3,0.4c0.5,0.1,0.9,0.3,1.3,0.6
	c0.4,0.3,0.7,0.7,1,1.1c0.3,0.5,0.4,1.1,0.4,1.7c0,0.6-0.1,1.2-0.4,1.8c-0.3,0.5-0.7,0.9-1.1,1.2c-0.5,0.3-1,0.6-1.6,0.7
	c-0.6,0.1-1.2,0.2-1.9,0.2c-0.6,0-1.2,0-1.8-0.1c-0.6-0.1-1.2-0.2-1.8-0.4l0.2-2.6c0.5,0.2,1,0.4,1.5,0.6c0.5,0.1,1,0.2,1.6,0.2
	c0.2,0,0.4,0,0.6-0.1c0.2,0,0.5-0.1,0.7-0.2c0.2-0.1,0.4-0.3,0.5-0.5c0.1-0.2,0.2-0.5,0.2-0.7c0-0.3-0.1-0.7-0.4-0.9
	c-0.3-0.2-0.6-0.4-1-0.5c-0.4-0.1-0.8-0.3-1.3-0.4c-0.5-0.1-0.9-0.3-1.3-0.6c-0.4-0.3-0.7-0.6-1-1c-0.3-0.5-0.4-1.1-0.4-1.7
	c0-0.6,0.1-1.2,0.4-1.7c0.3-0.5,0.6-0.9,1-1.2c0.5-0.3,1-0.5,1.5-0.7c0.6-0.1,1.2-0.2,1.8-0.2c0.6,0,1.3,0,1.9,0.1l1.5,0.3
	L200.4,78.4z"/>
<path class="st1" d="M207.8,75.8h3v1.7l0,0c0.4-0.6,0.8-1.1,1.4-1.4c0.7-0.4,1.5-0.6,2.3-0.6c0.8,0,1.6,0.2,2.4,0.5
	c0.6,0.3,1.2,0.8,1.6,1.4c0.4,0.6,0.7,1.3,0.9,2c0.2,0.8,0.3,1.6,0.3,2.4c0,0.8-0.1,1.6-0.3,2.4c-0.2,0.7-0.5,1.4-0.9,2
	c-0.4,0.6-1,1.1-1.6,1.4c-0.7,0.4-1.6,0.6-2.4,0.5c-0.6,0-1.3-0.1-1.9-0.3c-0.7-0.3-1.2-0.7-1.7-1.3l0,0v6.4h-3.1L207.8,75.8
	L207.8,75.8z M212.4,78.3c-0.4,0.2-0.7,0.6-0.9,0.9c-0.2,0.4-0.4,0.8-0.5,1.2c-0.1,0.4-0.1,0.9-0.1,1.3c0,0.4,0.1,0.9,0.1,1.3
	c0.1,0.4,0.2,0.9,0.5,1.3c0.2,0.4,0.5,0.7,0.9,1c0.4,0.3,0.8,0.4,1.3,0.4c0.5,0,0.9-0.1,1.3-0.4c0.3-0.3,0.6-0.6,0.8-1
	c0.2-0.4,0.3-0.8,0.4-1.3c0.1-0.4,0.1-0.9,0.1-1.3c0-0.4,0-0.9-0.1-1.3c-0.1-0.4-0.2-0.9-0.4-1.2c-0.2-0.4-0.5-0.7-0.8-0.9
	c-0.4-0.3-0.8-0.4-1.3-0.4C213.3,77.9,212.8,78.1,212.4,78.3L212.4,78.3z"/>
<path class="st1" d="M220.6,79.3c0.3-0.8,0.7-1.4,1.3-2c0.6-0.5,1.3-1,2-1.3c0.8-0.3,1.6-0.5,2.5-0.4c0.9,0,1.7,0.1,2.5,0.4
	c0.7,0.3,1.4,0.7,2,1.3c0.6,0.6,1,1.2,1.3,2c0.3,0.9,0.5,1.8,0.5,2.7c0,0.8-0.1,1.7-0.4,2.4c-0.5,1.5-1.7,2.7-3.2,3.3
	c-0.9,0.3-1.8,0.5-2.7,0.5c-0.9,0-1.8-0.1-2.7-0.5c-1.5-0.6-2.7-1.8-3.2-3.3c-0.3-0.8-0.4-1.6-0.4-2.4
	C220.1,81,220.2,80.1,220.6,79.3z M223.5,83.1c0.1,0.5,0.2,0.9,0.5,1.3c0.2,0.4,0.5,0.7,0.9,1c0.4,0.3,1,0.4,1.5,0.4
	c0.5,0,1-0.1,1.5-0.4c0.4-0.2,0.7-0.6,0.9-1c0.2-0.4,0.4-0.9,0.5-1.3c0.1-0.5,0.1-1,0.1-1.5c0-0.5-0.1-0.9-0.2-1.3
	c-0.1-0.4-0.3-0.8-0.6-1.1c-0.3-0.3-0.6-0.6-1-0.8c-0.4-0.2-0.9-0.3-1.3-0.3c-0.5,0-0.9,0.1-1.3,0.3c-0.4,0.2-0.7,0.5-0.9,0.8
	c-0.3,0.3-0.4,0.7-0.6,1.1c-0.1,0.4-0.2,0.9-0.2,1.3C223.4,82.1,223.4,82.6,223.5,83.1z"/>
<path class="st1" d="M241.1,78.4c-0.4-0.2-0.9-0.3-1.3-0.4c-0.5-0.1-1-0.1-1.5-0.1c-0.2,0-0.4,0-0.6,0.1c-0.2,0-0.4,0.1-0.6,0.2
	c-0.2,0.1-0.3,0.3-0.4,0.4c-0.1,0.2-0.2,0.4-0.2,0.6c0,0.3,0.1,0.6,0.4,0.7c0.3,0.2,0.6,0.4,1,0.5l1.2,0.4c0.5,0.1,0.9,0.3,1.3,0.6
	c0.4,0.3,0.7,0.7,1,1.1c0.3,0.5,0.4,1.1,0.4,1.7c0,0.6-0.1,1.2-0.4,1.8c-0.3,0.5-0.7,0.9-1.1,1.2c-0.5,0.3-1,0.6-1.6,0.7
	c-0.6,0.1-1.2,0.2-1.9,0.2c-0.6,0-1.2,0-1.8-0.1c-0.6-0.1-1.2-0.2-1.8-0.4l0.2-2.6c0.5,0.2,1,0.4,1.5,0.6c0.5,0.1,1,0.2,1.6,0.2
	c0.2,0,0.4,0,0.6-0.1c0.2,0,0.5-0.1,0.7-0.2c0.2-0.1,0.4-0.3,0.5-0.5c0.1-0.2,0.2-0.5,0.2-0.7c0-0.3-0.1-0.7-0.4-0.9
	c-0.3-0.2-0.6-0.4-1-0.5c-0.4-0.1-0.8-0.3-1.3-0.4c-0.5-0.1-0.9-0.3-1.3-0.6c-0.4-0.3-0.7-0.6-1-1c-0.3-0.5-0.4-1.1-0.4-1.7
	c0-0.6,0.1-1.2,0.4-1.7c0.3-0.5,0.6-0.9,1-1.2c0.5-0.3,1-0.5,1.5-0.7c0.6-0.1,1.2-0.2,1.8-0.2c0.6,0,1.3,0,1.9,0.1l1.5,0.3
	L241.1,78.4z"/>
<path class="st1" d="M250.3,78.4c-0.4-0.2-0.9-0.3-1.3-0.4c-0.5-0.1-1-0.1-1.5-0.1c-0.2,0-0.4,0-0.6,0.1c-0.2,0-0.4,0.1-0.6,0.2
	c-0.2,0.1-0.3,0.3-0.4,0.4c-0.1,0.2-0.2,0.4-0.2,0.6c0,0.3,0.1,0.6,0.4,0.7c0.3,0.2,0.6,0.4,1,0.5l1.3,0.4c0.5,0.1,0.9,0.3,1.3,0.6
	c0.4,0.3,0.7,0.7,1,1.1c0.3,0.5,0.4,1.1,0.4,1.7c0,0.6-0.1,1.2-0.4,1.8c-0.3,0.5-0.7,0.9-1.1,1.2c-0.5,0.3-1,0.6-1.6,0.7
	c-0.6,0.1-1.2,0.2-1.9,0.2c-0.6,0-1.2,0-1.8-0.1c-0.6-0.1-1.2-0.2-1.8-0.4l0.2-2.6c0.5,0.2,1,0.4,1.5,0.6c0.5,0.1,1,0.2,1.6,0.2
	c0.2,0,0.4,0,0.6-0.1c0.2,0,0.5-0.1,0.7-0.2c0.2-0.1,0.4-0.3,0.5-0.5c0.1-0.2,0.2-0.5,0.2-0.7c0-0.3-0.1-0.7-0.4-0.9
	c-0.3-0.2-0.6-0.4-1-0.5c-0.4-0.1-0.8-0.3-1.3-0.4c-0.5-0.1-0.9-0.3-1.3-0.6c-0.4-0.3-0.7-0.6-1-1c-0.3-0.5-0.4-1.1-0.4-1.7
	c0-0.6,0.1-1.2,0.4-1.7c0.3-0.5,0.6-0.9,1-1.2c0.5-0.3,1-0.5,1.5-0.7c0.6-0.1,1.2-0.2,1.8-0.2c0.6,0,1.3,0,1.9,0.1l1.5,0.3
	L250.3,78.4z"/>
<path class="st1" d="M252.4,70.7h3.1v3h-3.1V70.7z M252.4,75.9h3.1v12h-3.1V75.9L252.4,75.9z"/>
<path class="st1" d="M257.7,70.4h3.1v7l0,0c0.4-0.5,0.9-1,1.5-1.3c0.6-0.3,1.4-0.5,2.1-0.5c0.8,0,1.6,0.2,2.4,0.5
	c0.6,0.3,1.2,0.8,1.6,1.4c0.4,0.6,0.7,1.3,0.9,2c0.2,0.8,0.3,1.6,0.3,2.4c0,0.8-0.1,1.6-0.3,2.4c-0.2,0.7-0.5,1.4-0.9,2
	c-0.4,0.6-0.9,1.1-1.6,1.4c-0.7,0.4-1.5,0.6-2.4,0.5c-0.7,0-1.4-0.1-2-0.4c-0.7-0.3-1.3-0.7-1.7-1.4l0,0v1.5h-3L257.7,70.4
	L257.7,70.4z M261,83.2c0.1,0.4,0.2,0.9,0.5,1.3c0.2,0.4,0.5,0.7,0.9,1c0.4,0.3,0.8,0.4,1.3,0.4c0.5,0,0.9-0.1,1.3-0.4
	c0.3-0.3,0.6-0.6,0.8-1c0.2-0.4,0.3-0.8,0.4-1.3c0.1-0.4,0.1-0.9,0.1-1.3c0-0.4,0-0.9-0.1-1.3c-0.1-0.4-0.2-0.9-0.4-1.2
	c-0.2-0.4-0.5-0.7-0.8-0.9c-0.4-0.3-0.8-0.4-1.3-0.4c-0.5,0-0.9,0.1-1.3,0.4c-0.4,0.2-0.7,0.6-0.9,0.9c-0.2,0.4-0.4,0.8-0.5,1.2
	c-0.1,0.4-0.1,0.9-0.1,1.3C260.9,82.3,260.9,82.7,261,83.2L261,83.2z"/>
<path class="st1" d="M270.9,70.4h3.1v17.5h-3.1V70.4z"/>
<path class="st1" d="M285.8,87.2c-0.6,0.3-1.2,0.6-1.9,0.7c-0.7,0.2-1.5,0.3-2.3,0.3c-1.7,0.1-3.4-0.5-4.6-1.6
	c-1.2-1.2-1.8-2.9-1.6-4.6c0-0.8,0.1-1.7,0.4-2.5c0.2-0.7,0.5-1.4,1-2c0.5-0.6,1.1-1.1,1.7-1.4c0.8-0.4,1.6-0.5,2.5-0.5
	c1,0,1.9,0.2,2.8,0.6c0.7,0.3,1.3,0.9,1.8,1.5c0.5,0.7,0.8,1.5,0.9,2.3c0.2,1,0.3,1.9,0.3,2.9h-8.3c0,0.9,0.4,1.7,1,2.3
	c0.7,0.5,1.5,0.8,2.4,0.8c0.7,0,1.4-0.1,2.1-0.4c0.6-0.2,1.3-0.5,1.9-0.9L285.8,87.2L285.8,87.2z M283.7,80.7c0-0.4-0.1-0.7-0.2-1.1
	c-0.1-0.3-0.3-0.6-0.5-0.9c-0.2-0.3-0.5-0.5-0.8-0.6c-0.4-0.2-0.7-0.2-1.1-0.2c-0.8-0.1-1.5,0.2-2,0.8c-0.5,0.6-0.7,1.3-0.8,2
	L283.7,80.7L283.7,80.7z"/>
</svg>
