<svg id="Layer_1" data-name="Layer 1" xmlns="http://www.w3.org/2000/svg" viewBox="0 0 286.7 92.79"><title>Web</title><path d="M110.65,177.59v39.27a52.27,52.27,0,0,1-.57,9,19.49,19.49,0,0,1-1.89,5.51,21.2,21.2,0,0,1-8.14,9,22.28,22.28,0,0,1-11.78,3.23A21.4,21.4,0,0,1,72.19,237q-6.35-6.57-6.35-16.63a24.14,24.14,0,0,1,1.55-8.6,22.56,22.56,0,0,1,4.5-7.33,20.67,20.67,0,0,1,7.18-5.21,21.41,21.41,0,0,1,8.73-1.84,26.16,26.16,0,0,1,6.35.75,22.62,22.62,0,0,1,5.76,2.3V209a21.42,21.42,0,0,0-5.53-3.09,16.46,16.46,0,0,0-5.67-1,13.84,13.84,0,0,0-10.55,4.41A15.91,15.91,0,0,0,74,220.69a15.56,15.56,0,0,0,4,11.08,13.48,13.48,0,0,0,10.3,4.3,13.28,13.28,0,0,0,10.28-4.34q3.95-4.34,4-11.35V177.59h8.05Z" transform="translate(-65.85 -177.2)" style="fill:#c13030"/><path d="M115.83,185.42a4.65,4.65,0,0,1,1.41-3.41,4.71,4.71,0,0,1,3.46-1.41,4.74,4.74,0,0,1,4.83,4.82,4.87,4.87,0,0,1-1.39,3.53,4.59,4.59,0,0,1-3.44,1.43,4.63,4.63,0,0,1-3.43-1.46A4.81,4.81,0,0,1,115.83,185.42Zm0.86,57.33V198.11h8v44.64h-8Z" transform="translate(-65.85 -177.2)" style="fill:#c13030"/><path d="M161.57,208.47V177.2h2.23a47.9,47.9,0,0,1,9.87,1A35.55,35.55,0,0,1,182,181a32.38,32.38,0,0,1,13.13,12,33,33,0,0,1,2.16,29.69,32.37,32.37,0,0,1-7.37,10.7,33.8,33.8,0,0,1-47.67,0A31.78,31.78,0,0,1,135,222.53a35.23,35.23,0,0,1-2.5-13.33,32.7,32.7,0,0,1,2.87-13.65,41.33,41.33,0,0,1,8.87-12.24l5.87,5.78a35.23,35.23,0,0,0-7.32,9.86,24.26,24.26,0,0,0-2.37,10.53,26.12,26.12,0,0,0,.91,7,21.34,21.34,0,0,0,2.73,6.08,24.91,24.91,0,0,0,9.35,8.74,26.59,26.59,0,0,0,30.81-4.1,23.72,23.72,0,0,0,5.48-7.8,22.88,22.88,0,0,0,1.93-9.26,22.58,22.58,0,0,0-6-15.86q-6-6.48-15.92-7.8v22h-8.19Z" transform="translate(-65.85 -177.2)" style="fill:#c13030"/><path d="M205.85,185.42a4.65,4.65,0,0,1,1.41-3.41,4.71,4.71,0,0,1,3.46-1.41,4.74,4.74,0,0,1,4.82,4.82,4.88,4.88,0,0,1-1.39,3.53,4.58,4.58,0,0,1-3.43,1.43,4.64,4.64,0,0,1-3.43-1.46A4.81,4.81,0,0,1,205.85,185.42Zm0.86,57.33V198.11h8v44.64h-8Z" transform="translate(-65.85 -177.2)" style="fill:#c13030"/><path d="M222.17,186.28h8v11.83h13.5v7.55h-13.5v19.11q0,5.37,2.62,7.85t8.34,2.48h2.54v7.64H241q-9.46,0-14.16-4.14t-4.7-12.46V186.28Z" transform="translate(-65.85 -177.2)" style="fill:#c13030"/><path d="M283.09,242.75V220.5q0-7-4-11.35a13.26,13.26,0,0,0-10.28-4.35,13.48,13.48,0,0,0-10.3,4.3,15.59,15.59,0,0,0-4,11.08,15.9,15.9,0,0,0,4.13,11.33,13.82,13.82,0,0,0,10.55,4.41,16.46,16.46,0,0,0,5.66-1,21.46,21.46,0,0,0,5.52-3.09v8.59a22.69,22.69,0,0,1-5.75,2.3,26.35,26.35,0,0,1-6.34.75,21,21,0,0,1-6.32-1,20.59,20.59,0,0,1-5.68-2.75,22.29,22.29,0,0,1-7.36-8.3,23.93,23.93,0,0,1-2.55-11.08q0-10,6.32-16.54a21.38,21.38,0,0,1,16-6.53,22.14,22.14,0,0,1,11.73,3.23,21.54,21.54,0,0,1,8.18,8.87,20.11,20.11,0,0,1,1.89,5.58,52.66,52.66,0,0,1,.57,9v18.74h-8Z" transform="translate(-65.85 -177.2)" style="fill:#c13030"/><path d="M295.36,242.75V177.59h8v65.16h-8Z" transform="translate(-65.85 -177.2)" style="fill:#c13030"/><path d="M309.36,242.75V177.59h8v65.16h-8Z" transform="translate(-65.85 -177.2)" style="fill:#c13030"/><path d="M253.82,247.86h3.13v3h-3.13v-3Zm0,5.19h3.13v12h-3.13V253Z" transform="translate(-65.85 -177.2)" style="fill:#c13030"/><path d="M266.23,255.57a10.57,10.57,0,0,0-1.33-.39,7.2,7.2,0,0,0-1.47-.13,3.87,3.87,0,0,0-.65.06,1.58,1.58,0,0,0-.58.22,1.42,1.42,0,0,0-.43.42,1.08,1.08,0,0,0-.18.63,0.84,0.84,0,0,0,.41.74,4.34,4.34,0,0,0,1,.47L264.3,258a4.58,4.58,0,0,1,1.31.62,3.51,3.51,0,0,1,1,1.08,3.28,3.28,0,0,1,.41,1.74,3.52,3.52,0,0,1-.43,1.8,3.6,3.6,0,0,1-1.13,1.22,5,5,0,0,1-1.61.69,7.83,7.83,0,0,1-1.87.22,11.82,11.82,0,0,1-1.79-.14,17,17,0,0,1-1.76-.38l0.19-2.57a8.34,8.34,0,0,0,1.51.59,5.93,5.93,0,0,0,1.58.21,3.34,3.34,0,0,0,.65-0.07,2.54,2.54,0,0,0,.67-0.23,1.53,1.53,0,0,0,.53-0.45,1.18,1.18,0,0,0,.21-0.72,1,1,0,0,0-.41-0.89,3.79,3.79,0,0,0-1-.52c-0.4-.14-0.83-0.27-1.31-0.4a4.66,4.66,0,0,1-1.31-.56,3.29,3.29,0,0,1-1-1,3.17,3.17,0,0,1-.41-1.73,3.35,3.35,0,0,1,.39-1.68,3.51,3.51,0,0,1,1.05-1.16,4.67,4.67,0,0,1,1.51-.68,7,7,0,0,1,1.77-.22,10.77,10.77,0,0,1,1.89.14l1.52,0.3Z" transform="translate(-65.85 -177.2)" style="fill:#c13030"/><path d="M273.61,253h3v1.71h0a4.22,4.22,0,0,1,1.44-1.44,4.34,4.34,0,0,1,2.3-.55,5,5,0,0,1,2.35.52,4.32,4.32,0,0,1,1.57,1.38,5.89,5.89,0,0,1,.86,2,10.23,10.23,0,0,1,.27,2.37,10.36,10.36,0,0,1-.27,2.38,5.86,5.86,0,0,1-.88,2,4.45,4.45,0,0,1-1.59,1.4,5,5,0,0,1-2.38.53,5.13,5.13,0,0,1-1.86-.33,4.16,4.16,0,0,1-1.67-1.33h0V270h-3.13V253Zm4.67,2.51a2.91,2.91,0,0,0-.88.92,4.17,4.17,0,0,0-.49,1.24,6,6,0,0,0-.15,1.31,6.76,6.76,0,0,0,.14,1.32,4.33,4.33,0,0,0,.46,1.26,2.76,2.76,0,0,0,.85.95,2.24,2.24,0,0,0,1.31.38,2.14,2.14,0,0,0,1.29-.37,2.62,2.62,0,0,0,.81-1,4.91,4.91,0,0,0,.42-1.26,7.17,7.17,0,0,0,.13-1.31,7.6,7.6,0,0,0-.12-1.29,4,4,0,0,0-.42-1.24,2.9,2.9,0,0,0-.79-0.93,2,2,0,0,0-1.26-.37A2.24,2.24,0,0,0,278.28,255.56Z" transform="translate(-65.85 -177.2)" style="fill:#c13030"/><path d="M286.42,256.47a5.7,5.7,0,0,1,1.33-2,6,6,0,0,1,2-1.26,6.77,6.77,0,0,1,2.48-.45,6.86,6.86,0,0,1,2.49.45,6,6,0,0,1,2,1.26,5.72,5.72,0,0,1,1.33,2,7.09,7.09,0,0,1,.48,2.68,7,7,0,0,1-.42,2.44,5.52,5.52,0,0,1-3.21,3.29,7,7,0,0,1-2.67.48,7,7,0,0,1-2.66-.48,5.55,5.55,0,0,1-3.2-3.29,6.94,6.94,0,0,1-.42-2.44A7.05,7.05,0,0,1,286.42,256.47Zm2.93,3.79a4.29,4.29,0,0,0,.48,1.33,2.74,2.74,0,0,0,.92,1,2.69,2.69,0,0,0,1.47.38,2.79,2.79,0,0,0,1.49-.36,2.64,2.64,0,0,0,.92-1,4.27,4.27,0,0,0,.48-1.34,8.08,8.08,0,0,0,.14-1.5,4.78,4.78,0,0,0-.19-1.34,3.43,3.43,0,0,0-.56-1.13,2.88,2.88,0,0,0-.95-0.79,2.85,2.85,0,0,0-1.34-.3,2.78,2.78,0,0,0-1.33.3,2.88,2.88,0,0,0-.93.81,3.63,3.63,0,0,0-.56,1.15,4.68,4.68,0,0,0-.19,1.32A7.89,7.89,0,0,0,289.35,260.26Z" transform="translate(-65.85 -177.2)" style="fill:#c13030"/><path d="M307,255.57a10.48,10.48,0,0,0-1.33-.39,7.2,7.2,0,0,0-1.47-.13,3.87,3.87,0,0,0-.65.06,1.58,1.58,0,0,0-.58.22,1.4,1.4,0,0,0-.43.42,1.08,1.08,0,0,0-.17.63,0.83,0.83,0,0,0,.41.74,4.33,4.33,0,0,0,1,.47L305,258a4.59,4.59,0,0,1,1.31.62,3.5,3.5,0,0,1,1,1.08,3.29,3.29,0,0,1,.41,1.74,3.52,3.52,0,0,1-.43,1.8,3.59,3.59,0,0,1-1.13,1.22,5.06,5.06,0,0,1-1.61.69,7.85,7.85,0,0,1-1.87.22,11.8,11.8,0,0,1-1.79-.14,16.8,16.8,0,0,1-1.76-.38l0.19-2.57a8.25,8.25,0,0,0,1.51.59,5.94,5.94,0,0,0,1.58.21,3.34,3.34,0,0,0,.65-0.07,2.54,2.54,0,0,0,.67-0.23,1.53,1.53,0,0,0,.53-0.45,1.17,1.17,0,0,0,.21-0.72,1,1,0,0,0-.41-0.89,3.79,3.79,0,0,0-1-.52c-0.4-.14-0.83-0.27-1.31-0.4a4.65,4.65,0,0,1-1.31-.56,3.29,3.29,0,0,1-1-1,3.16,3.16,0,0,1-.41-1.73,3.34,3.34,0,0,1,.4-1.68,3.48,3.48,0,0,1,1.05-1.16A4.65,4.65,0,0,1,302,253a7,7,0,0,1,1.76-.22,10.76,10.76,0,0,1,1.89.14l1.52,0.3Z" transform="translate(-65.85 -177.2)" style="fill:#c13030"/><path d="M316.18,255.57a10.53,10.53,0,0,0-1.33-.39,7.22,7.22,0,0,0-1.47-.13,3.86,3.86,0,0,0-.65.06,1.58,1.58,0,0,0-.58.22,1.42,1.42,0,0,0-.43.42,1.08,1.08,0,0,0-.17.63,0.83,0.83,0,0,0,.41.74,4.29,4.29,0,0,0,1,.47l1.31,0.41a4.6,4.6,0,0,1,1.31.62,3.53,3.53,0,0,1,1,1.08,3.3,3.3,0,0,1,.41,1.74,3.54,3.54,0,0,1-.43,1.8,3.61,3.61,0,0,1-1.13,1.22,5,5,0,0,1-1.61.69,7.84,7.84,0,0,1-1.87.22,11.8,11.8,0,0,1-1.79-.14,17,17,0,0,1-1.76-.38l0.19-2.57a8.31,8.31,0,0,0,1.51.59,5.93,5.93,0,0,0,1.58.21,3.34,3.34,0,0,0,.65-0.07,2.55,2.55,0,0,0,.67-0.23,1.54,1.54,0,0,0,.53-0.45,1.17,1.17,0,0,0,.21-0.72,1,1,0,0,0-.41-0.89,3.79,3.79,0,0,0-1-.52c-0.4-.14-0.83-0.27-1.31-0.4a4.68,4.68,0,0,1-1.31-.56,3.29,3.29,0,0,1-1-1,3.16,3.16,0,0,1-.41-1.73,3.35,3.35,0,0,1,.4-1.68,3.49,3.49,0,0,1,1.05-1.16,4.65,4.65,0,0,1,1.51-.68,7,7,0,0,1,1.76-.22,10.76,10.76,0,0,1,1.89.14l1.52,0.3Z" transform="translate(-65.85 -177.2)" style="fill:#c13030"/><path d="M318.3,247.86h3.13v3H318.3v-3Zm0,5.19h3.13v12H318.3V253Z" transform="translate(-65.85 -177.2)" style="fill:#c13030"/><path d="M323.56,247.55h3.13v7h0a4.94,4.94,0,0,1,1.51-1.34,4.2,4.2,0,0,1,2.09-.48,4.94,4.94,0,0,1,2.35.52,4.32,4.32,0,0,1,1.57,1.38,5.84,5.84,0,0,1,.87,2,10.23,10.23,0,0,1,.27,2.37,10.36,10.36,0,0,1-.27,2.38,6,6,0,0,1-.87,2,4.39,4.39,0,0,1-1.57,1.4,4.88,4.88,0,0,1-2.35.53,5.42,5.42,0,0,1-2-.4,3.71,3.71,0,0,1-1.68-1.36h0v1.47h-3V247.55Zm3.29,12.8a4.39,4.39,0,0,0,.46,1.26,2.77,2.77,0,0,0,.85.95,2.25,2.25,0,0,0,1.31.38,2.14,2.14,0,0,0,1.29-.37,2.62,2.62,0,0,0,.81-1,4.8,4.8,0,0,0,.42-1.26,7,7,0,0,0,.13-1.31,7.6,7.6,0,0,0-.12-1.29,4,4,0,0,0-.42-1.24,2.88,2.88,0,0,0-.79-0.93,2,2,0,0,0-1.26-.37,2.25,2.25,0,0,0-1.29.36,2.93,2.93,0,0,0-.87.92,4.18,4.18,0,0,0-.49,1.24,6.06,6.06,0,0,0-.15,1.31A6.75,6.75,0,0,0,326.86,260.35Z" transform="translate(-65.85 -177.2)" style="fill:#c13030"/><path d="M336.75,247.55h3.13v17.53h-3.13V247.55Z" transform="translate(-65.85 -177.2)" style="fill:#c13030"/><path d="M351.66,264.41a7.75,7.75,0,0,1-1.87.71,9.55,9.55,0,0,1-2.27.25,6.32,6.32,0,0,1-4.64-1.62,6.19,6.19,0,0,1-1.65-4.62,8.44,8.44,0,0,1,.35-2.46,6,6,0,0,1,1-2,4.89,4.89,0,0,1,1.74-1.37,5.62,5.62,0,0,1,2.46-.5,6.18,6.18,0,0,1,2.78.55,4.51,4.51,0,0,1,1.75,1.51,6.17,6.17,0,0,1,.92,2.3,14.81,14.81,0,0,1,.27,2.91h-8.32a3.15,3.15,0,0,0,1,2.26,3.58,3.58,0,0,0,2.4.78,6,6,0,0,0,2.13-.36,13.45,13.45,0,0,0,1.87-.85v2.55Zm-2.1-6.52a5.31,5.31,0,0,0-.2-1.07,2.66,2.66,0,0,0-.46-0.9,2.26,2.26,0,0,0-.77-0.62,2.52,2.52,0,0,0-1.12-.23,2.45,2.45,0,0,0-2,.8,3.64,3.64,0,0,0-.78,2h5.33Z" transform="translate(-65.85 -177.2)" style="fill:#c13030"/></svg>